<mxfile host="app.diagrams.net" modified="2023-12-08T18:52:54.010Z" agent="Mozilla/5.0 (Windows NT 10.0; Win64; x64) AppleWebKit/537.36 (KHTML, like Gecko) Chrome/119.0.0.0 Safari/537.36" etag="zmcIjPNzv0aI-mNFFlzF" version="22.1.7" type="google" pages="3">
  <diagram name="Project Requirements" id="TyNxZk5SOkfh-0pnhYMA">
    <mxGraphModel grid="1" page="1" gridSize="10" guides="1" tooltips="1" connect="1" arrows="1" fold="1" pageScale="1" pageWidth="1169" pageHeight="827" background="none" math="0" shadow="0">
      <root>
        <mxCell id="p0HO7M8mRJkpUF3XOM-y-0" />
        <mxCell id="p0HO7M8mRJkpUF3XOM-y-1" parent="p0HO7M8mRJkpUF3XOM-y-0" />
        <mxCell id="p0HO7M8mRJkpUF3XOM-y-7" value="&lt;font style=&quot;font-size: 16px;&quot; face=&quot;Tahoma&quot;&gt;نیازمندی های پروژه&lt;/font&gt;" style="swimlane;html=1;childLayout=stackLayout;resizeParent=1;resizeParentMax=0;horizontal=0;startSize=20;horizontalStack=0;whiteSpace=wrap;" vertex="1" parent="p0HO7M8mRJkpUF3XOM-y-1">
          <mxGeometry x="92" y="-526" width="1108" height="240" as="geometry" />
        </mxCell>
        <mxCell id="p0HO7M8mRJkpUF3XOM-y-8" value="" style="points=[[0.145,0.145,0],[0.5,0,0],[0.855,0.145,0],[1,0.5,0],[0.855,0.855,0],[0.5,1,0],[0.145,0.855,0],[0,0.5,0]];shape=mxgraph.bpmn.event;html=1;verticalLabelPosition=bottom;labelBackgroundColor=#ffffff;verticalAlign=top;align=center;perimeter=ellipsePerimeter;outlineConnect=0;aspect=fixed;outline=standard;symbol=general;fillColor=#d5e8d4;strokeColor=#82b366;" vertex="1" parent="p0HO7M8mRJkpUF3XOM-y-1">
          <mxGeometry x="160" y="-429" width="44" height="44" as="geometry" />
        </mxCell>
        <mxCell id="p0HO7M8mRJkpUF3XOM-y-9" value="&lt;font style=&quot;font-size: 13px;&quot; face=&quot;Tahoma&quot;&gt;&lt;b&gt;مشخص شدن شرایط و قوانین همکاری&lt;/b&gt;&lt;/font&gt;&lt;span id=&quot;docs-internal-guid-c54ab22c-7fff-621e-ea9a-f7a90656187b&quot;&gt;&lt;/span&gt;&lt;span id=&quot;docs-internal-guid-c54ab22c-7fff-621e-ea9a-f7a90656187b&quot;&gt;&lt;/span&gt;" style="points=[[0.25,0,0],[0.5,0,0],[0.75,0,0],[1,0.25,0],[1,0.5,0],[1,0.75,0],[0.75,1,0],[0.5,1,0],[0.25,1,0],[0,0.75,0],[0,0.5,0],[0,0.25,0]];shape=mxgraph.bpmn.task;whiteSpace=wrap;rectStyle=rounded;size=10;html=1;container=1;expand=0;collapsible=0;taskMarker=abstract;" vertex="1" parent="p0HO7M8mRJkpUF3XOM-y-1">
          <mxGeometry x="301" y="-447" width="120" height="80" as="geometry" />
        </mxCell>
        <mxCell id="p0HO7M8mRJkpUF3XOM-y-10" value="&lt;font style=&quot;font-size: 14px;&quot; face=&quot;Tahoma&quot;&gt;&lt;b&gt;پیاده سازی نیازمندی ها توسط سازمان&lt;/b&gt;&lt;/font&gt;&lt;span id=&quot;docs-internal-guid-b073a8cf-7fff-5089-b941-b33d490f5552&quot;&gt;&lt;/span&gt;" style="points=[[0.25,0,0],[0.5,0,0],[0.75,0,0],[1,0.25,0],[1,0.5,0],[1,0.75,0],[0.75,1,0],[0.5,1,0],[0.25,1,0],[0,0.75,0],[0,0.5,0],[0,0.25,0]];shape=mxgraph.bpmn.task;whiteSpace=wrap;rectStyle=rounded;size=10;html=1;container=1;expand=0;collapsible=0;taskMarker=abstract;" vertex="1" parent="p0HO7M8mRJkpUF3XOM-y-1">
          <mxGeometry x="541" y="-447" width="161" height="80" as="geometry" />
        </mxCell>
        <mxCell id="p0HO7M8mRJkpUF3XOM-y-11" style="edgeStyle=orthogonalEdgeStyle;rounded=0;orthogonalLoop=1;jettySize=auto;html=1;" edge="1" parent="p0HO7M8mRJkpUF3XOM-y-1" source="p0HO7M8mRJkpUF3XOM-y-12">
          <mxGeometry relative="1" as="geometry">
            <mxPoint x="1122" y="-407" as="targetPoint" />
          </mxGeometry>
        </mxCell>
        <mxCell id="p0HO7M8mRJkpUF3XOM-y-12" value="&lt;font style=&quot;font-size: 14px;&quot; face=&quot;Tahoma&quot;&gt;&lt;b&gt;اطلاع رسانی به فروشنده ها&lt;/b&gt;&lt;/font&gt;" style="points=[[0.25,0,0],[0.5,0,0],[0.75,0,0],[1,0.25,0],[1,0.5,0],[1,0.75,0],[0.75,1,0],[0.5,1,0],[0.25,1,0],[0,0.75,0],[0,0.5,0],[0,0.25,0]];shape=mxgraph.bpmn.task;whiteSpace=wrap;rectStyle=rounded;size=10;html=1;container=1;expand=0;collapsible=0;taskMarker=abstract;" vertex="1" parent="p0HO7M8mRJkpUF3XOM-y-1">
          <mxGeometry x="822" y="-447" width="160" height="80" as="geometry" />
        </mxCell>
        <mxCell id="p0HO7M8mRJkpUF3XOM-y-13" value="" style="points=[[0.145,0.145,0],[0.5,0,0],[0.855,0.145,0],[1,0.5,0],[0.855,0.855,0],[0.5,1,0],[0.145,0.855,0],[0,0.5,0]];shape=mxgraph.bpmn.event;html=1;verticalLabelPosition=bottom;labelBackgroundColor=#ffffff;verticalAlign=top;align=center;perimeter=ellipsePerimeter;outlineConnect=0;aspect=fixed;outline=end;symbol=terminate2;fillColor=#f8cecc;strokeColor=#b85450;" vertex="1" parent="p0HO7M8mRJkpUF3XOM-y-1">
          <mxGeometry x="1123" y="-426" width="40" height="40" as="geometry" />
        </mxCell>
        <mxCell id="p0HO7M8mRJkpUF3XOM-y-14" style="edgeStyle=orthogonalEdgeStyle;rounded=0;orthogonalLoop=1;jettySize=auto;html=1;entryX=0;entryY=0.5;entryDx=0;entryDy=0;entryPerimeter=0;" edge="1" parent="p0HO7M8mRJkpUF3XOM-y-1" source="p0HO7M8mRJkpUF3XOM-y-10" target="p0HO7M8mRJkpUF3XOM-y-12">
          <mxGeometry relative="1" as="geometry" />
        </mxCell>
        <mxCell id="p0HO7M8mRJkpUF3XOM-y-15" style="edgeStyle=orthogonalEdgeStyle;rounded=0;orthogonalLoop=1;jettySize=auto;html=1;exitX=1;exitY=0.5;exitDx=0;exitDy=0;exitPerimeter=0;entryX=0;entryY=0.5;entryDx=0;entryDy=0;entryPerimeter=0;" edge="1" parent="p0HO7M8mRJkpUF3XOM-y-1" source="p0HO7M8mRJkpUF3XOM-y-8" target="p0HO7M8mRJkpUF3XOM-y-9">
          <mxGeometry relative="1" as="geometry" />
        </mxCell>
        <mxCell id="p0HO7M8mRJkpUF3XOM-y-16" style="edgeStyle=orthogonalEdgeStyle;rounded=0;orthogonalLoop=1;jettySize=auto;html=1;exitX=1;exitY=0.5;exitDx=0;exitDy=0;exitPerimeter=0;entryX=0;entryY=0.5;entryDx=0;entryDy=0;entryPerimeter=0;" edge="1" parent="p0HO7M8mRJkpUF3XOM-y-1" source="p0HO7M8mRJkpUF3XOM-y-9" target="p0HO7M8mRJkpUF3XOM-y-10">
          <mxGeometry relative="1" as="geometry" />
        </mxCell>
      </root>
    </mxGraphModel>
  </diagram>
  <diagram id="6a731a19-8d31-9384-78a2-239565b7b9f0" name="Process Design v1.0">
    <mxGraphModel grid="1" page="1" gridSize="10" guides="1" tooltips="1" connect="1" arrows="1" fold="1" pageScale="1" pageWidth="1169" pageHeight="827" background="none" math="0" shadow="0">
      <root>
        <mxCell id="0" />
        <mxCell id="1" parent="0" />
        <mxCell id="6AgyvYlonu15ztxGsik_-144" value="شروع همکاری" style="swimlane;html=1;childLayout=stackLayout;resizeParent=1;resizeParentMax=0;horizontal=0;startSize=20;horizontalStack=0;whiteSpace=wrap;fontFamily=Tahoma;fontSize=18;verticalAlign=middle;spacingTop=4;spacingBottom=4;spacingRight=4;align=center;" vertex="1" parent="1">
          <mxGeometry x="78" y="-343" width="2080" height="700" as="geometry" />
        </mxCell>
        <mxCell id="6AgyvYlonu15ztxGsik_-145" value="&lt;font style=&quot;font-size: 16px;&quot; face=&quot;Tahoma&quot;&gt;فروشنده&lt;/font&gt;" style="swimlane;html=1;startSize=30;horizontal=0;" vertex="1" parent="6AgyvYlonu15ztxGsik_-144">
          <mxGeometry x="20" width="2060" height="320" as="geometry" />
        </mxCell>
        <mxCell id="u3QRS2MbkqJg1PPQHaC3-64" value="&lt;font style=&quot;font-size: 12px;&quot; face=&quot;Tahoma&quot;&gt;شرایط فراهم؟&lt;/font&gt;" style="points=[[0.25,0.25,0],[0.5,0,0],[0.75,0.25,0],[1,0.5,0],[0.75,0.75,0],[0.5,1,0],[0.25,0.75,0],[0,0.5,0]];shape=mxgraph.bpmn.gateway2;html=1;verticalLabelPosition=bottom;labelBackgroundColor=#ffffff;verticalAlign=top;align=center;perimeter=rhombusPerimeter;outlineConnect=0;outline=none;symbol=none;" vertex="1" parent="6AgyvYlonu15ztxGsik_-145">
          <mxGeometry x="730.75" y="53.5" width="50" height="50" as="geometry" />
        </mxCell>
        <mxCell id="KckINlZljK_ZA74foRYZ-61" value="&lt;font size=&quot;1&quot; style=&quot;&quot; face=&quot;Tahoma&quot;&gt;&lt;b style=&quot;font-size: 16px;&quot;&gt;تصمیم به فراهم کردن شرایط&lt;/b&gt;&lt;/font&gt;" style="points=[[0.25,0,0],[0.5,0,0],[0.75,0,0],[1,0.25,0],[1,0.5,0],[1,0.75,0],[0.75,1,0],[0.5,1,0],[0.25,1,0],[0,0.75,0],[0,0.5,0],[0,0.25,0]];shape=mxgraph.bpmn.task;whiteSpace=wrap;rectStyle=rounded;size=10;html=1;container=1;expand=0;collapsible=0;taskMarker=abstract;" vertex="1" parent="6AgyvYlonu15ztxGsik_-145">
          <mxGeometry x="687" y="213" width="136.5" height="80" as="geometry" />
        </mxCell>
        <mxCell id="KckINlZljK_ZA74foRYZ-63" style="edgeStyle=orthogonalEdgeStyle;rounded=0;orthogonalLoop=1;jettySize=auto;html=1;entryX=0.5;entryY=0;entryDx=0;entryDy=0;entryPerimeter=0;" edge="1" parent="6AgyvYlonu15ztxGsik_-145" target="KckINlZljK_ZA74foRYZ-61">
          <mxGeometry relative="1" as="geometry">
            <mxPoint x="754.8181818181815" y="103.4318181818187" as="sourcePoint" />
          </mxGeometry>
        </mxCell>
        <mxCell id="KckINlZljK_ZA74foRYZ-90" value="&lt;font face=&quot;Tahoma&quot;&gt;خیر&lt;/font&gt;" style="edgeLabel;html=1;align=center;verticalAlign=middle;resizable=0;points=[];" connectable="0" vertex="1" parent="KckINlZljK_ZA74foRYZ-63">
          <mxGeometry x="0.0223" y="-6" relative="1" as="geometry">
            <mxPoint x="-9" y="1" as="offset" />
          </mxGeometry>
        </mxCell>
        <mxCell id="KckINlZljK_ZA74foRYZ-64" value="&lt;font face=&quot;Tahoma&quot;&gt;همکاری؟&lt;/font&gt;" style="points=[[0.25,0.25,0],[0.5,0,0],[0.75,0.25,0],[1,0.5,0],[0.75,0.75,0],[0.5,1,0],[0.25,0.75,0],[0,0.5,0]];shape=mxgraph.bpmn.gateway2;html=1;verticalLabelPosition=bottom;labelBackgroundColor=#ffffff;verticalAlign=top;align=center;perimeter=rhombusPerimeter;outlineConnect=0;outline=none;symbol=none;" vertex="1" parent="6AgyvYlonu15ztxGsik_-145">
          <mxGeometry x="592" y="231" width="43" height="43" as="geometry" />
        </mxCell>
        <mxCell id="KckINlZljK_ZA74foRYZ-65" style="edgeStyle=orthogonalEdgeStyle;rounded=0;orthogonalLoop=1;jettySize=auto;html=1;exitX=0;exitY=0.5;exitDx=0;exitDy=0;exitPerimeter=0;entryX=1;entryY=0.5;entryDx=0;entryDy=0;entryPerimeter=0;" edge="1" parent="6AgyvYlonu15ztxGsik_-145" source="KckINlZljK_ZA74foRYZ-61" target="KckINlZljK_ZA74foRYZ-64">
          <mxGeometry relative="1" as="geometry" />
        </mxCell>
        <mxCell id="6AgyvYlonu15ztxGsik_-148" value="&lt;font style=&quot;font-size: 16px;&quot; face=&quot;Tahoma&quot;&gt;سازمان&lt;/font&gt;" style="swimlane;html=1;startSize=30;horizontal=0;" vertex="1" parent="6AgyvYlonu15ztxGsik_-144">
          <mxGeometry x="20" y="320" width="2060" height="380" as="geometry" />
        </mxCell>
        <mxCell id="KckINlZljK_ZA74foRYZ-75" value="&lt;b&gt;&lt;font style=&quot;font-size: 16px;&quot; face=&quot;Tahoma&quot;&gt;امضای قرارداد&lt;/font&gt;&lt;/b&gt;" style="points=[[0.25,0,0],[0.5,0,0],[0.75,0,0],[1,0.25,0],[1,0.5,0],[1,0.75,0],[0.75,1,0],[0.5,1,0],[0.25,1,0],[0,0.75,0],[0,0.5,0],[0,0.25,0]];shape=mxgraph.bpmn.task;whiteSpace=wrap;rectStyle=rounded;size=10;html=1;container=1;expand=0;collapsible=0;taskMarker=abstract;" vertex="1" parent="6AgyvYlonu15ztxGsik_-148">
          <mxGeometry x="1453" y="278" width="120" height="80" as="geometry" />
        </mxCell>
        <mxCell id="KckINlZljK_ZA74foRYZ-78" value="&lt;font style=&quot;font-size: 16px;&quot; face=&quot;Tahoma&quot;&gt;&lt;b&gt;بررسی قرارداد&lt;/b&gt;&lt;/font&gt;" style="points=[[0.25,0,0],[0.5,0,0],[0.75,0,0],[1,0.25,0],[1,0.5,0],[1,0.75,0],[0.75,1,0],[0.5,1,0],[0.25,1,0],[0,0.75,0],[0,0.5,0],[0,0.25,0]];shape=mxgraph.bpmn.task;whiteSpace=wrap;rectStyle=rounded;size=10;html=1;container=1;expand=0;collapsible=0;taskMarker=abstract;" vertex="1" parent="6AgyvYlonu15ztxGsik_-148">
          <mxGeometry x="1643" y="278" width="120" height="80" as="geometry" />
        </mxCell>
        <mxCell id="KckINlZljK_ZA74foRYZ-79" style="edgeStyle=orthogonalEdgeStyle;rounded=0;orthogonalLoop=1;jettySize=auto;html=1;exitX=1;exitY=0.5;exitDx=0;exitDy=0;exitPerimeter=0;entryX=0;entryY=0.5;entryDx=0;entryDy=0;entryPerimeter=0;" edge="1" parent="6AgyvYlonu15ztxGsik_-148" source="KckINlZljK_ZA74foRYZ-75" target="KckINlZljK_ZA74foRYZ-78">
          <mxGeometry relative="1" as="geometry" />
        </mxCell>
        <mxCell id="KckINlZljK_ZA74foRYZ-80" value="&lt;font face=&quot;Tahoma&quot;&gt;قرارداد معتبر؟&lt;/font&gt;" style="points=[[0.25,0.25,0],[0.5,0,0],[0.75,0.25,0],[1,0.5,0],[0.75,0.75,0],[0.5,1,0],[0.25,0.75,0],[0,0.5,0]];shape=mxgraph.bpmn.gateway2;html=1;verticalLabelPosition=bottom;labelBackgroundColor=#ffffff;verticalAlign=top;align=center;perimeter=rhombusPerimeter;outlineConnect=0;outline=none;symbol=none;" vertex="1" parent="6AgyvYlonu15ztxGsik_-148">
          <mxGeometry x="1823" y="293" width="50" height="50" as="geometry" />
        </mxCell>
        <mxCell id="KckINlZljK_ZA74foRYZ-81" style="edgeStyle=orthogonalEdgeStyle;rounded=0;orthogonalLoop=1;jettySize=auto;html=1;exitX=1;exitY=0.5;exitDx=0;exitDy=0;exitPerimeter=0;entryX=0;entryY=0.5;entryDx=0;entryDy=0;entryPerimeter=0;" edge="1" parent="6AgyvYlonu15ztxGsik_-148" source="KckINlZljK_ZA74foRYZ-78" target="KckINlZljK_ZA74foRYZ-80">
          <mxGeometry relative="1" as="geometry" />
        </mxCell>
        <mxCell id="KckINlZljK_ZA74foRYZ-82" value="&lt;b&gt;&lt;font face=&quot;Tahoma&quot; style=&quot;font-size: 16px;&quot;&gt;دادن دسترسی به فروشنده&amp;nbsp;&lt;/font&gt;&lt;/b&gt;" style="points=[[0.25,0,0],[0.5,0,0],[0.75,0,0],[1,0.25,0],[1,0.5,0],[1,0.75,0],[0.75,1,0],[0.5,1,0],[0.25,1,0],[0,0.75,0],[0,0.5,0],[0,0.25,0]];shape=mxgraph.bpmn.task;whiteSpace=wrap;rectStyle=rounded;size=10;html=1;container=1;expand=0;collapsible=0;taskMarker=abstract;" vertex="1" parent="6AgyvYlonu15ztxGsik_-148">
          <mxGeometry x="1924" y="278" width="120" height="80" as="geometry" />
        </mxCell>
        <mxCell id="KckINlZljK_ZA74foRYZ-88" style="edgeStyle=orthogonalEdgeStyle;rounded=0;orthogonalLoop=1;jettySize=auto;html=1;exitX=0.5;exitY=0;exitDx=0;exitDy=0;exitPerimeter=0;entryX=0.5;entryY=0;entryDx=0;entryDy=0;entryPerimeter=0;" edge="1" parent="6AgyvYlonu15ztxGsik_-148" source="KckINlZljK_ZA74foRYZ-80" target="KckINlZljK_ZA74foRYZ-75">
          <mxGeometry relative="1" as="geometry">
            <Array as="points">
              <mxPoint x="1848" y="223" />
              <mxPoint x="1513" y="223" />
            </Array>
          </mxGeometry>
        </mxCell>
        <mxCell id="KckINlZljK_ZA74foRYZ-91" style="edgeStyle=orthogonalEdgeStyle;rounded=0;orthogonalLoop=1;jettySize=auto;html=1;exitX=1;exitY=0.5;exitDx=0;exitDy=0;exitPerimeter=0;entryX=0;entryY=0.5;entryDx=0;entryDy=0;entryPerimeter=0;" edge="1" parent="6AgyvYlonu15ztxGsik_-148" source="KckINlZljK_ZA74foRYZ-80" target="KckINlZljK_ZA74foRYZ-82">
          <mxGeometry relative="1" as="geometry" />
        </mxCell>
        <mxCell id="-D4--cLUKDxcBOZkMb40-79" value="" style="points=[[0.145,0.145,0],[0.5,0,0],[0.855,0.145,0],[1,0.5,0],[0.855,0.855,0],[0.5,1,0],[0.145,0.855,0],[0,0.5,0]];shape=mxgraph.bpmn.event;html=1;verticalLabelPosition=bottom;labelBackgroundColor=#ffffff;verticalAlign=top;align=center;perimeter=ellipsePerimeter;outlineConnect=0;aspect=fixed;outline=standard;symbol=general;fillColor=#d5e8d4;strokeColor=#82b366;" vertex="1" parent="1">
          <mxGeometry x="147" y="-286" width="44" height="44" as="geometry" />
        </mxCell>
        <mxCell id="-D4--cLUKDxcBOZkMb40-80" value="&lt;font size=&quot;1&quot; style=&quot;&quot; face=&quot;Tahoma&quot;&gt;&lt;b style=&quot;font-size: 16px;&quot;&gt;ارسال درخواست&lt;/b&gt;&lt;/font&gt;" style="points=[[0.25,0,0],[0.5,0,0],[0.75,0,0],[1,0.25,0],[1,0.5,0],[1,0.75,0],[0.75,1,0],[0.5,1,0],[0.25,1,0],[0,0.75,0],[0,0.5,0],[0,0.25,0]];shape=mxgraph.bpmn.task;whiteSpace=wrap;rectStyle=rounded;size=10;html=1;container=1;expand=0;collapsible=0;taskMarker=abstract;" vertex="1" parent="1">
          <mxGeometry x="974" y="-304" width="140" height="80" as="geometry" />
        </mxCell>
        <mxCell id="-D4--cLUKDxcBOZkMb40-83" value="&lt;font style=&quot;font-size: 16px;&quot; face=&quot;Tahoma&quot;&gt;&lt;b&gt;ارزیابی اطلاعات&lt;/b&gt;&lt;/font&gt;" style="points=[[0.25,0,0],[0.5,0,0],[0.75,0,0],[1,0.25,0],[1,0.5,0],[1,0.75,0],[0.75,1,0],[0.5,1,0],[0.25,1,0],[0,0.75,0],[0,0.5,0],[0,0.25,0]];shape=mxgraph.bpmn.task;whiteSpace=wrap;rectStyle=rounded;size=10;html=1;container=1;expand=0;collapsible=0;taskMarker=abstract;" vertex="1" parent="1">
          <mxGeometry x="975" y="54" width="139" height="80" as="geometry" />
        </mxCell>
        <mxCell id="-D4--cLUKDxcBOZkMb40-86" style="edgeStyle=orthogonalEdgeStyle;rounded=0;orthogonalLoop=1;jettySize=auto;html=1;exitX=0.5;exitY=1;exitDx=0;exitDy=0;exitPerimeter=0;entryX=0.5;entryY=0;entryDx=0;entryDy=0;entryPerimeter=0;" edge="1" parent="1" source="-D4--cLUKDxcBOZkMb40-80" target="-D4--cLUKDxcBOZkMb40-83">
          <mxGeometry relative="1" as="geometry" />
        </mxCell>
        <mxCell id="-D4--cLUKDxcBOZkMb40-87" value="&lt;font style=&quot;font-size: 13px;&quot; face=&quot;Tahoma&quot;&gt;اطلاعات معتبر؟&lt;/font&gt;" style="points=[[0.25,0.25,0],[0.5,0,0],[0.75,0.25,0],[1,0.5,0],[0.75,0.75,0],[0.5,1,0],[0.25,0.75,0],[0,0.5,0]];shape=mxgraph.bpmn.gateway2;html=1;verticalLabelPosition=bottom;labelBackgroundColor=#ffffff;verticalAlign=top;align=center;perimeter=rhombusPerimeter;outlineConnect=0;outline=none;symbol=none;" vertex="1" parent="1">
          <mxGeometry x="1192" y="73" width="45" height="42" as="geometry" />
        </mxCell>
        <mxCell id="-D4--cLUKDxcBOZkMb40-88" style="edgeStyle=orthogonalEdgeStyle;rounded=0;orthogonalLoop=1;jettySize=auto;html=1;exitX=1;exitY=0.5;exitDx=0;exitDy=0;exitPerimeter=0;entryX=0;entryY=0.5;entryDx=0;entryDy=0;entryPerimeter=0;" edge="1" parent="1" source="-D4--cLUKDxcBOZkMb40-83" target="-D4--cLUKDxcBOZkMb40-87">
          <mxGeometry relative="1" as="geometry" />
        </mxCell>
        <mxCell id="-D4--cLUKDxcBOZkMb40-89" value="" style="points=[[0.145,0.145,0],[0.5,0,0],[0.855,0.145,0],[1,0.5,0],[0.855,0.855,0],[0.5,1,0],[0.145,0.855,0],[0,0.5,0]];shape=mxgraph.bpmn.event;html=1;verticalLabelPosition=bottom;labelBackgroundColor=#ffffff;verticalAlign=top;align=center;perimeter=ellipsePerimeter;outlineConnect=0;aspect=fixed;outline=end;symbol=terminate2;fillColor=#f8cecc;strokeColor=#b85450;" vertex="1" parent="1">
          <mxGeometry x="1340" y="74" width="40" height="40" as="geometry" />
        </mxCell>
        <mxCell id="-D4--cLUKDxcBOZkMb40-90" style="edgeStyle=orthogonalEdgeStyle;rounded=0;orthogonalLoop=1;jettySize=auto;html=1;exitX=1;exitY=0.5;exitDx=0;exitDy=0;exitPerimeter=0;entryX=0;entryY=0.5;entryDx=0;entryDy=0;entryPerimeter=0;" edge="1" parent="1" source="-D4--cLUKDxcBOZkMb40-87" target="-D4--cLUKDxcBOZkMb40-89">
          <mxGeometry relative="1" as="geometry" />
        </mxCell>
        <mxCell id="-D4--cLUKDxcBOZkMb40-91" value="&lt;font style=&quot;font-size: 14px;&quot; face=&quot;Tahoma&quot;&gt;خیر&lt;/font&gt;" style="text;html=1;align=center;verticalAlign=middle;resizable=0;points=[];autosize=1;strokeColor=none;fillColor=none;" vertex="1" parent="1">
          <mxGeometry x="1275" y="66" width="40" height="30" as="geometry" />
        </mxCell>
        <mxCell id="-D4--cLUKDxcBOZkMb40-92" value="&lt;font face=&quot;Tahoma&quot; style=&quot;font-size: 16px;&quot;&gt;&lt;b&gt;انتخاب فروشنده&lt;/b&gt;&lt;/font&gt;" style="points=[[0.25,0,0],[0.5,0,0],[0.75,0,0],[1,0.25,0],[1,0.5,0],[1,0.75,0],[0.75,1,0],[0.5,1,0],[0.25,1,0],[0,0.75,0],[0,0.5,0],[0,0.25,0]];shape=mxgraph.bpmn.task;whiteSpace=wrap;rectStyle=rounded;size=10;html=1;container=1;expand=0;collapsible=0;taskMarker=abstract;" vertex="1" parent="1">
          <mxGeometry x="1150" y="255" width="130" height="80" as="geometry" />
        </mxCell>
        <mxCell id="-D4--cLUKDxcBOZkMb40-93" style="edgeStyle=orthogonalEdgeStyle;rounded=0;orthogonalLoop=1;jettySize=auto;html=1;exitX=0.5;exitY=1;exitDx=0;exitDy=0;exitPerimeter=0;entryX=0.5;entryY=0;entryDx=0;entryDy=0;entryPerimeter=0;" edge="1" parent="1" source="-D4--cLUKDxcBOZkMb40-87" target="-D4--cLUKDxcBOZkMb40-92">
          <mxGeometry relative="1" as="geometry" />
        </mxCell>
        <mxCell id="-D4--cLUKDxcBOZkMb40-94" value="&lt;font face=&quot;Tahoma&quot; style=&quot;font-size: 12px;&quot;&gt;بله&lt;/font&gt;" style="text;html=1;align=center;verticalAlign=middle;resizable=0;points=[];autosize=1;strokeColor=none;fillColor=none;" vertex="1" parent="1">
          <mxGeometry x="1178" y="177" width="40" height="30" as="geometry" />
        </mxCell>
        <mxCell id="u3QRS2MbkqJg1PPQHaC3-60" value="&lt;font style=&quot;font-size: 16px;&quot; face=&quot;Tahoma&quot;&gt;&lt;b&gt;تصمیم به همکاری&lt;/b&gt;&lt;/font&gt;" style="points=[[0.25,0,0],[0.5,0,0],[0.75,0,0],[1,0.25,0],[1,0.5,0],[1,0.75,0],[0.75,1,0],[0.5,1,0],[0.25,1,0],[0,0.75,0],[0,0.5,0],[0,0.25,0]];shape=mxgraph.bpmn.task;whiteSpace=wrap;rectStyle=rounded;size=10;html=1;container=1;expand=0;collapsible=0;taskMarker=abstract;" vertex="1" parent="1">
          <mxGeometry x="249" y="-304" width="120" height="80" as="geometry" />
        </mxCell>
        <mxCell id="u3QRS2MbkqJg1PPQHaC3-61" value="&lt;b&gt;&lt;font style=&quot;font-size: 16px;&quot; face=&quot;Tahoma&quot;&gt;مطالعه نحوه&amp;nbsp; شروع همکاری و بررسی فراهم بودن شرایط&lt;br&gt;&lt;/font&gt;&lt;/b&gt;" style="points=[[0.25,0,0],[0.5,0,0],[0.75,0,0],[1,0.25,0],[1,0.5,0],[1,0.75,0],[0.75,1,0],[0.5,1,0],[0.25,1,0],[0,0.75,0],[0,0.5,0],[0,0.25,0]];shape=mxgraph.bpmn.task;whiteSpace=wrap;rectStyle=rounded;size=10;html=1;container=1;expand=0;collapsible=0;taskMarker=abstract;" vertex="1" parent="1">
          <mxGeometry x="449" y="-310" width="180" height="91" as="geometry" />
        </mxCell>
        <mxCell id="u3QRS2MbkqJg1PPQHaC3-62" style="edgeStyle=orthogonalEdgeStyle;rounded=0;orthogonalLoop=1;jettySize=auto;html=1;exitX=1;exitY=0.5;exitDx=0;exitDy=0;exitPerimeter=0;entryX=0;entryY=0.5;entryDx=0;entryDy=0;entryPerimeter=0;" edge="1" parent="1" source="-D4--cLUKDxcBOZkMb40-79" target="u3QRS2MbkqJg1PPQHaC3-60">
          <mxGeometry relative="1" as="geometry" />
        </mxCell>
        <mxCell id="u3QRS2MbkqJg1PPQHaC3-63" style="edgeStyle=orthogonalEdgeStyle;rounded=0;orthogonalLoop=1;jettySize=auto;html=1;exitX=1;exitY=0.5;exitDx=0;exitDy=0;exitPerimeter=0;entryX=0;entryY=0.5;entryDx=0;entryDy=0;entryPerimeter=0;" edge="1" parent="1" source="u3QRS2MbkqJg1PPQHaC3-60" target="u3QRS2MbkqJg1PPQHaC3-61">
          <mxGeometry relative="1" as="geometry" />
        </mxCell>
        <mxCell id="u3QRS2MbkqJg1PPQHaC3-66" style="edgeStyle=orthogonalEdgeStyle;rounded=0;orthogonalLoop=1;jettySize=auto;html=1;exitX=1;exitY=0.5;exitDx=0;exitDy=0;exitPerimeter=0;entryX=0;entryY=0.5;entryDx=0;entryDy=0;entryPerimeter=0;" edge="1" parent="1" source="u3QRS2MbkqJg1PPQHaC3-64" target="-D4--cLUKDxcBOZkMb40-80">
          <mxGeometry relative="1" as="geometry" />
        </mxCell>
        <mxCell id="u3QRS2MbkqJg1PPQHaC3-67" value="&lt;font face=&quot;Tahoma&quot; style=&quot;font-size: 14px;&quot;&gt;بله&lt;/font&gt;" style="text;html=1;align=center;verticalAlign=middle;resizable=0;points=[];autosize=1;strokeColor=none;fillColor=none;" vertex="1" parent="1">
          <mxGeometry x="908" y="-295" width="40" height="30" as="geometry" />
        </mxCell>
        <mxCell id="KckINlZljK_ZA74foRYZ-60" style="edgeStyle=orthogonalEdgeStyle;rounded=0;orthogonalLoop=1;jettySize=auto;html=1;exitX=1;exitY=0.5;exitDx=0;exitDy=0;exitPerimeter=0;entryX=0;entryY=0.5;entryDx=0;entryDy=0;entryPerimeter=0;" edge="1" parent="1" source="u3QRS2MbkqJg1PPQHaC3-61" target="u3QRS2MbkqJg1PPQHaC3-64">
          <mxGeometry relative="1" as="geometry" />
        </mxCell>
        <mxCell id="KckINlZljK_ZA74foRYZ-66" value="&lt;b&gt;&lt;font face=&quot;Tahoma&quot; style=&quot;font-size: 16px;&quot;&gt;فراهم کردن شرایط&lt;/font&gt;&lt;/b&gt;" style="points=[[0.25,0,0],[0.5,0,0],[0.75,0,0],[1,0.25,0],[1,0.5,0],[1,0.75,0],[0.75,1,0],[0.5,1,0],[0.25,1,0],[0,0.75,0],[0,0.5,0],[0,0.25,0]];shape=mxgraph.bpmn.task;whiteSpace=wrap;rectStyle=rounded;size=10;html=1;container=1;expand=0;collapsible=0;taskMarker=abstract;" vertex="1" parent="1">
          <mxGeometry x="459" y="-125" width="160" height="80" as="geometry" />
        </mxCell>
        <mxCell id="KckINlZljK_ZA74foRYZ-68" style="edgeStyle=orthogonalEdgeStyle;rounded=0;orthogonalLoop=1;jettySize=auto;html=1;entryX=0.5;entryY=1;entryDx=0;entryDy=0;entryPerimeter=0;" edge="1" parent="1" source="KckINlZljK_ZA74foRYZ-66" target="u3QRS2MbkqJg1PPQHaC3-61">
          <mxGeometry relative="1" as="geometry" />
        </mxCell>
        <mxCell id="KckINlZljK_ZA74foRYZ-69" style="edgeStyle=orthogonalEdgeStyle;rounded=0;orthogonalLoop=1;jettySize=auto;html=1;exitX=0;exitY=0.5;exitDx=0;exitDy=0;exitPerimeter=0;entryX=1.006;entryY=0.425;entryDx=0;entryDy=0;entryPerimeter=0;" edge="1" parent="1" source="KckINlZljK_ZA74foRYZ-64" target="KckINlZljK_ZA74foRYZ-66">
          <mxGeometry relative="1" as="geometry" />
        </mxCell>
        <mxCell id="KckINlZljK_ZA74foRYZ-70" value="&lt;font face=&quot;Tahoma&quot;&gt;بله&lt;/font&gt;" style="text;html=1;align=center;verticalAlign=middle;resizable=0;points=[];autosize=1;strokeColor=none;fillColor=none;" vertex="1" parent="1">
          <mxGeometry x="638" y="-116" width="40" height="30" as="geometry" />
        </mxCell>
        <mxCell id="KckINlZljK_ZA74foRYZ-71" value="&lt;font face=&quot;Tahoma&quot;&gt;انتخاب؟&lt;/font&gt;" style="points=[[0.25,0.25,0],[0.5,0,0],[0.75,0.25,0],[1,0.5,0],[0.75,0.75,0],[0.5,1,0],[0.25,0.75,0],[0,0.5,0]];shape=mxgraph.bpmn.gateway2;html=1;verticalLabelPosition=bottom;labelBackgroundColor=#ffffff;verticalAlign=top;align=center;perimeter=rhombusPerimeter;outlineConnect=0;outline=none;symbol=none;" vertex="1" parent="1">
          <mxGeometry x="1401" y="270" width="50" height="50" as="geometry" />
        </mxCell>
        <mxCell id="KckINlZljK_ZA74foRYZ-72" style="edgeStyle=orthogonalEdgeStyle;rounded=0;orthogonalLoop=1;jettySize=auto;html=1;entryX=0;entryY=0.5;entryDx=0;entryDy=0;entryPerimeter=0;" edge="1" parent="1" source="-D4--cLUKDxcBOZkMb40-92" target="KckINlZljK_ZA74foRYZ-71">
          <mxGeometry relative="1" as="geometry" />
        </mxCell>
        <mxCell id="KckINlZljK_ZA74foRYZ-73" style="edgeStyle=orthogonalEdgeStyle;rounded=0;orthogonalLoop=1;jettySize=auto;html=1;exitX=0.5;exitY=0;exitDx=0;exitDy=0;exitPerimeter=0;entryX=1;entryY=0.5;entryDx=0;entryDy=0;entryPerimeter=0;" edge="1" parent="1" source="KckINlZljK_ZA74foRYZ-71" target="-D4--cLUKDxcBOZkMb40-89">
          <mxGeometry relative="1" as="geometry" />
        </mxCell>
        <mxCell id="KckINlZljK_ZA74foRYZ-74" value="&lt;font face=&quot;Tahoma&quot;&gt;خیر&lt;br&gt;&lt;/font&gt;" style="edgeLabel;html=1;align=center;verticalAlign=middle;resizable=0;points=[];" connectable="0" vertex="1" parent="KckINlZljK_ZA74foRYZ-73">
          <mxGeometry x="-0.2105" y="-2" relative="1" as="geometry">
            <mxPoint x="-18" as="offset" />
          </mxGeometry>
        </mxCell>
        <mxCell id="KckINlZljK_ZA74foRYZ-76" style="edgeStyle=orthogonalEdgeStyle;rounded=0;orthogonalLoop=1;jettySize=auto;html=1;exitX=1;exitY=0.5;exitDx=0;exitDy=0;exitPerimeter=0;entryX=0;entryY=0.5;entryDx=0;entryDy=0;entryPerimeter=0;" edge="1" parent="1" source="KckINlZljK_ZA74foRYZ-71" target="KckINlZljK_ZA74foRYZ-75">
          <mxGeometry relative="1" as="geometry" />
        </mxCell>
        <mxCell id="KckINlZljK_ZA74foRYZ-77" value="&lt;font face=&quot;Tahoma&quot;&gt;بله&lt;/font&gt;" style="text;html=1;align=center;verticalAlign=middle;resizable=0;points=[];autosize=1;strokeColor=none;fillColor=none;" vertex="1" parent="1">
          <mxGeometry x="1476" y="269" width="40" height="30" as="geometry" />
        </mxCell>
        <mxCell id="KckINlZljK_ZA74foRYZ-89" value="&lt;font face=&quot;Tahoma&quot;&gt;خیر&lt;/font&gt;" style="text;html=1;align=center;verticalAlign=middle;resizable=0;points=[];autosize=1;strokeColor=none;fillColor=none;" vertex="1" parent="1">
          <mxGeometry x="1939" y="213" width="40" height="30" as="geometry" />
        </mxCell>
        <mxCell id="KckINlZljK_ZA74foRYZ-92" value="&lt;font face=&quot;Tahoma&quot;&gt;بله&lt;/font&gt;" style="text;html=1;align=center;verticalAlign=middle;resizable=0;points=[];autosize=1;strokeColor=none;fillColor=none;" vertex="1" parent="1">
          <mxGeometry x="1973" y="268" width="40" height="30" as="geometry" />
        </mxCell>
        <mxCell id="KckINlZljK_ZA74foRYZ-99" value="" style="endArrow=classic;html=1;rounded=0;exitX=0.5;exitY=0;exitDx=0;exitDy=0;exitPerimeter=0;" edge="1" parent="1" source="KckINlZljK_ZA74foRYZ-82">
          <mxGeometry width="50" height="50" relative="1" as="geometry">
            <mxPoint x="2083.0000000000005" y="259" as="sourcePoint" />
            <mxPoint x="1360" y="74" as="targetPoint" />
            <Array as="points">
              <mxPoint x="2080" y="40" />
              <mxPoint x="1720" y="40" />
              <mxPoint x="1360" y="40" />
            </Array>
          </mxGeometry>
        </mxCell>
        <mxCell id="KckINlZljK_ZA74foRYZ-102" style="edgeStyle=orthogonalEdgeStyle;rounded=0;orthogonalLoop=1;jettySize=auto;html=1;exitX=0.5;exitY=1;exitDx=0;exitDy=0;exitPerimeter=0;entryX=0.5;entryY=1;entryDx=0;entryDy=0;entryPerimeter=0;" edge="1" parent="1" source="KckINlZljK_ZA74foRYZ-64" target="-D4--cLUKDxcBOZkMb40-89">
          <mxGeometry relative="1" as="geometry">
            <Array as="points">
              <mxPoint x="712" y="160" />
              <mxPoint x="1360" y="160" />
            </Array>
          </mxGeometry>
        </mxCell>
        <mxCell id="KckINlZljK_ZA74foRYZ-103" value="&lt;font face=&quot;Tahoma&quot;&gt;خیر&lt;/font&gt;" style="text;html=1;align=center;verticalAlign=middle;resizable=0;points=[];autosize=1;strokeColor=none;fillColor=none;" vertex="1" parent="1">
          <mxGeometry x="676" y="7" width="40" height="30" as="geometry" />
        </mxCell>
      </root>
    </mxGraphModel>
  </diagram>
  <diagram name="Process Design v1.1" id="joktwLF07mUFcXh_ZhCi">
    <mxGraphModel grid="1" page="1" gridSize="10" guides="1" tooltips="1" connect="1" arrows="1" fold="1" pageScale="1" pageWidth="1169" pageHeight="827" background="none" math="0" shadow="0">
      <root>
        <mxCell id="icxHUV3VudQYMbT3gARq-0" />
        <mxCell id="icxHUV3VudQYMbT3gARq-1" parent="icxHUV3VudQYMbT3gARq-0" />
        <mxCell id="icxHUV3VudQYMbT3gARq-2" value="شروع همکاری" style="swimlane;html=1;childLayout=stackLayout;resizeParent=1;resizeParentMax=0;horizontal=0;startSize=20;horizontalStack=0;whiteSpace=wrap;fontFamily=Tahoma;fontSize=18;verticalAlign=middle;spacingTop=4;spacingBottom=4;spacingRight=4;align=center;" vertex="1" parent="icxHUV3VudQYMbT3gARq-1">
          <mxGeometry x="78" y="-343" width="1840" height="700" as="geometry" />
        </mxCell>
        <mxCell id="icxHUV3VudQYMbT3gARq-3" value="&lt;font style=&quot;font-size: 16px;&quot; face=&quot;Tahoma&quot;&gt;فروشنده&lt;/font&gt;" style="swimlane;html=1;startSize=30;horizontal=0;" vertex="1" parent="icxHUV3VudQYMbT3gARq-2">
          <mxGeometry x="20" width="1820" height="320" as="geometry" />
        </mxCell>
        <mxCell id="icxHUV3VudQYMbT3gARq-4" value="&lt;font style=&quot;font-size: 12px;&quot; face=&quot;Tahoma&quot;&gt;شرایط فراهم؟&lt;/font&gt;" style="points=[[0.25,0.25,0],[0.5,0,0],[0.75,0.25,0],[1,0.5,0],[0.75,0.75,0],[0.5,1,0],[0.25,0.75,0],[0,0.5,0]];shape=mxgraph.bpmn.gateway2;html=1;verticalLabelPosition=bottom;labelBackgroundColor=#ffffff;verticalAlign=top;align=center;perimeter=rhombusPerimeter;outlineConnect=0;outline=none;symbol=none;" vertex="1" parent="icxHUV3VudQYMbT3gARq-3">
          <mxGeometry x="730.75" y="53.5" width="50" height="50" as="geometry" />
        </mxCell>
        <mxCell id="icxHUV3VudQYMbT3gARq-5" value="&lt;font size=&quot;1&quot; style=&quot;&quot; face=&quot;Tahoma&quot;&gt;&lt;b style=&quot;font-size: 16px;&quot;&gt;تصمیم به فراهم کردن شرایط&lt;/b&gt;&lt;/font&gt;" style="points=[[0.25,0,0],[0.5,0,0],[0.75,0,0],[1,0.25,0],[1,0.5,0],[1,0.75,0],[0.75,1,0],[0.5,1,0],[0.25,1,0],[0,0.75,0],[0,0.5,0],[0,0.25,0]];shape=mxgraph.bpmn.task;whiteSpace=wrap;rectStyle=rounded;size=10;html=1;container=1;expand=0;collapsible=0;taskMarker=abstract;" vertex="1" parent="icxHUV3VudQYMbT3gARq-3">
          <mxGeometry x="687" y="213" width="136.5" height="80" as="geometry" />
        </mxCell>
        <mxCell id="icxHUV3VudQYMbT3gARq-6" style="edgeStyle=orthogonalEdgeStyle;rounded=0;orthogonalLoop=1;jettySize=auto;html=1;entryX=0.5;entryY=0;entryDx=0;entryDy=0;entryPerimeter=0;" edge="1" parent="icxHUV3VudQYMbT3gARq-3" target="icxHUV3VudQYMbT3gARq-5">
          <mxGeometry relative="1" as="geometry">
            <mxPoint x="754.8181818181815" y="103.4318181818187" as="sourcePoint" />
          </mxGeometry>
        </mxCell>
        <mxCell id="icxHUV3VudQYMbT3gARq-7" value="&lt;font face=&quot;Tahoma&quot;&gt;خیر&lt;/font&gt;" style="edgeLabel;html=1;align=center;verticalAlign=middle;resizable=0;points=[];" connectable="0" vertex="1" parent="icxHUV3VudQYMbT3gARq-6">
          <mxGeometry x="0.0223" y="-6" relative="1" as="geometry">
            <mxPoint x="-9" y="1" as="offset" />
          </mxGeometry>
        </mxCell>
        <mxCell id="icxHUV3VudQYMbT3gARq-8" value="&lt;font face=&quot;Tahoma&quot;&gt;همکاری؟&lt;/font&gt;" style="points=[[0.25,0.25,0],[0.5,0,0],[0.75,0.25,0],[1,0.5,0],[0.75,0.75,0],[0.5,1,0],[0.25,0.75,0],[0,0.5,0]];shape=mxgraph.bpmn.gateway2;html=1;verticalLabelPosition=bottom;labelBackgroundColor=#ffffff;verticalAlign=top;align=center;perimeter=rhombusPerimeter;outlineConnect=0;outline=none;symbol=none;" vertex="1" parent="icxHUV3VudQYMbT3gARq-3">
          <mxGeometry x="583" y="231" width="43" height="43" as="geometry" />
        </mxCell>
        <mxCell id="icxHUV3VudQYMbT3gARq-9" style="edgeStyle=orthogonalEdgeStyle;rounded=0;orthogonalLoop=1;jettySize=auto;html=1;exitX=0;exitY=0.5;exitDx=0;exitDy=0;exitPerimeter=0;entryX=1;entryY=0.5;entryDx=0;entryDy=0;entryPerimeter=0;" edge="1" parent="icxHUV3VudQYMbT3gARq-3" source="icxHUV3VudQYMbT3gARq-5" target="icxHUV3VudQYMbT3gARq-8">
          <mxGeometry relative="1" as="geometry" />
        </mxCell>
        <mxCell id="mNFOlLU00NmX8I9TdvMS-8" value="&lt;b&gt;&lt;font style=&quot;font-size: 16px;&quot; face=&quot;Tahoma&quot;&gt;تصمیم درمورد درخواست مجدد&lt;/font&gt;&lt;/b&gt;" style="points=[[0.25,0,0],[0.5,0,0],[0.75,0,0],[1,0.25,0],[1,0.5,0],[1,0.75,0],[0.75,1,0],[0.5,1,0],[0.25,1,0],[0,0.75,0],[0,0.5,0],[0,0.25,0]];shape=mxgraph.bpmn.task;whiteSpace=wrap;rectStyle=rounded;size=10;html=1;container=1;expand=0;collapsible=0;taskMarker=abstract;" vertex="1" parent="icxHUV3VudQYMbT3gARq-3">
          <mxGeometry x="1102" y="203" width="138" height="80" as="geometry" />
        </mxCell>
        <mxCell id="mNFOlLU00NmX8I9TdvMS-10" value="&lt;font face=&quot;Tahoma&quot;&gt;درخواست مجدد؟&lt;/font&gt;" style="points=[[0.25,0.25,0],[0.5,0,0],[0.75,0.25,0],[1,0.5,0],[0.75,0.75,0],[0.5,1,0],[0.25,0.75,0],[0,0.5,0]];shape=mxgraph.bpmn.gateway2;html=1;verticalLabelPosition=bottom;labelBackgroundColor=#ffffff;verticalAlign=top;align=center;perimeter=rhombusPerimeter;outlineConnect=0;outline=none;symbol=none;" vertex="1" parent="icxHUV3VudQYMbT3gARq-3">
          <mxGeometry x="1384" y="218" width="50" height="50" as="geometry" />
        </mxCell>
        <mxCell id="mNFOlLU00NmX8I9TdvMS-11" style="edgeStyle=orthogonalEdgeStyle;rounded=0;orthogonalLoop=1;jettySize=auto;html=1;exitX=1;exitY=0.5;exitDx=0;exitDy=0;exitPerimeter=0;entryX=0;entryY=0.5;entryDx=0;entryDy=0;entryPerimeter=0;" edge="1" parent="icxHUV3VudQYMbT3gARq-3" source="mNFOlLU00NmX8I9TdvMS-8" target="mNFOlLU00NmX8I9TdvMS-10">
          <mxGeometry relative="1" as="geometry" />
        </mxCell>
        <mxCell id="mNFOlLU00NmX8I9TdvMS-14" value="&lt;font size=&quot;1&quot; face=&quot;Tahoma&quot;&gt;&lt;b style=&quot;font-size: 16px;&quot;&gt;انجام اقدامات لازم جهت رفع موانع&lt;/b&gt;&lt;/font&gt;" style="points=[[0.25,0,0],[0.5,0,0],[0.75,0,0],[1,0.25,0],[1,0.5,0],[1,0.75,0],[0.75,1,0],[0.5,1,0],[0.25,1,0],[0,0.75,0],[0,0.5,0],[0,0.25,0]];shape=mxgraph.bpmn.task;whiteSpace=wrap;rectStyle=rounded;size=10;html=1;container=1;expand=0;collapsible=0;taskMarker=abstract;" vertex="1" parent="icxHUV3VudQYMbT3gARq-3">
          <mxGeometry x="1102" y="40" width="139" height="80" as="geometry" />
        </mxCell>
        <mxCell id="mNFOlLU00NmX8I9TdvMS-16" style="edgeStyle=orthogonalEdgeStyle;rounded=0;orthogonalLoop=1;jettySize=auto;html=1;exitX=0.5;exitY=0;exitDx=0;exitDy=0;exitPerimeter=0;entryX=1;entryY=0.5;entryDx=0;entryDy=0;entryPerimeter=0;" edge="1" parent="icxHUV3VudQYMbT3gARq-3" source="mNFOlLU00NmX8I9TdvMS-10" target="mNFOlLU00NmX8I9TdvMS-14">
          <mxGeometry relative="1" as="geometry" />
        </mxCell>
        <mxCell id="icxHUV3VudQYMbT3gARq-10" value="&lt;font style=&quot;font-size: 16px;&quot; face=&quot;Tahoma&quot;&gt;سازمان&lt;/font&gt;" style="swimlane;html=1;startSize=30;horizontal=0;" vertex="1" parent="icxHUV3VudQYMbT3gARq-2">
          <mxGeometry x="20" y="320" width="1820" height="380" as="geometry" />
        </mxCell>
        <mxCell id="icxHUV3VudQYMbT3gARq-11" value="&lt;b&gt;&lt;font style=&quot;font-size: 16px;&quot; face=&quot;Tahoma&quot;&gt;امضای قرارداد&lt;/font&gt;&lt;/b&gt;" style="points=[[0.25,0,0],[0.5,0,0],[0.75,0,0],[1,0.25,0],[1,0.5,0],[1,0.75,0],[0.75,1,0],[0.5,1,0],[0.25,1,0],[0,0.75,0],[0,0.5,0],[0,0.25,0]];shape=mxgraph.bpmn.task;whiteSpace=wrap;rectStyle=rounded;size=10;html=1;container=1;expand=0;collapsible=0;taskMarker=abstract;" vertex="1" parent="icxHUV3VudQYMbT3gARq-10">
          <mxGeometry x="1102" y="239" width="120" height="80" as="geometry" />
        </mxCell>
        <mxCell id="icxHUV3VudQYMbT3gARq-13" style="edgeStyle=orthogonalEdgeStyle;rounded=0;orthogonalLoop=1;jettySize=auto;html=1;exitX=1;exitY=0.5;exitDx=0;exitDy=0;exitPerimeter=0;entryX=0;entryY=0.5;entryDx=0;entryDy=0;entryPerimeter=0;" edge="1" parent="icxHUV3VudQYMbT3gARq-10" source="icxHUV3VudQYMbT3gARq-11" target="icxHUV3VudQYMbT3gARq-16">
          <mxGeometry relative="1" as="geometry">
            <mxPoint x="1643" y="279.0000000000002" as="targetPoint" />
          </mxGeometry>
        </mxCell>
        <mxCell id="icxHUV3VudQYMbT3gARq-16" value="&lt;b&gt;&lt;font face=&quot;Tahoma&quot; style=&quot;font-size: 16px;&quot;&gt;دادن دسترسی به فروشنده&amp;nbsp;&lt;/font&gt;&lt;/b&gt;" style="points=[[0.25,0,0],[0.5,0,0],[0.75,0,0],[1,0.25,0],[1,0.5,0],[1,0.75,0],[0.75,1,0],[0.5,1,0],[0.25,1,0],[0,0.75,0],[0,0.5,0],[0,0.25,0]];shape=mxgraph.bpmn.task;whiteSpace=wrap;rectStyle=rounded;size=10;html=1;container=1;expand=0;collapsible=0;taskMarker=abstract;" vertex="1" parent="icxHUV3VudQYMbT3gARq-10">
          <mxGeometry x="1343" y="239" width="120" height="80" as="geometry" />
        </mxCell>
        <mxCell id="icxHUV3VudQYMbT3gARq-25" value="" style="points=[[0.145,0.145,0],[0.5,0,0],[0.855,0.145,0],[1,0.5,0],[0.855,0.855,0],[0.5,1,0],[0.145,0.855,0],[0,0.5,0]];shape=mxgraph.bpmn.event;html=1;verticalLabelPosition=bottom;labelBackgroundColor=#ffffff;verticalAlign=top;align=center;perimeter=ellipsePerimeter;outlineConnect=0;aspect=fixed;outline=end;symbol=terminate2;fillColor=#f8cecc;strokeColor=#b85450;direction=south;" parent="icxHUV3VudQYMbT3gARq-10" vertex="1">
          <mxGeometry x="1582" y="163" width="40" height="40" as="geometry" />
        </mxCell>
        <mxCell id="mNFOlLU00NmX8I9TdvMS-3" style="edgeStyle=orthogonalEdgeStyle;rounded=0;orthogonalLoop=1;jettySize=auto;html=1;exitX=1;exitY=0.5;exitDx=0;exitDy=0;exitPerimeter=0;entryX=1;entryY=0.5;entryDx=0;entryDy=0;entryPerimeter=0;" edge="1" parent="icxHUV3VudQYMbT3gARq-10" source="icxHUV3VudQYMbT3gARq-16" target="icxHUV3VudQYMbT3gARq-25">
          <mxGeometry relative="1" as="geometry" />
        </mxCell>
        <mxCell id="mNFOlLU00NmX8I9TdvMS-4" value="&lt;font face=&quot;Tahoma&quot; style=&quot;font-size: 16px;&quot;&gt;&lt;b&gt;اطلاع‌رسانی به فروشنده&lt;/b&gt;&lt;/font&gt;" style="points=[[0.25,0,0],[0.5,0,0],[0.75,0,0],[1,0.25,0],[1,0.5,0],[1,0.75,0],[0.75,1,0],[0.5,1,0],[0.25,1,0],[0,0.75,0],[0,0.5,0],[0,0.25,0]];shape=mxgraph.bpmn.task;whiteSpace=wrap;rectStyle=rounded;size=10;html=1;container=1;expand=0;collapsible=0;taskMarker=abstract;" vertex="1" parent="icxHUV3VudQYMbT3gARq-10">
          <mxGeometry x="1102" y="63" width="138" height="80" as="geometry" />
        </mxCell>
        <mxCell id="icxHUV3VudQYMbT3gARq-47" value="&lt;font face=&quot;Tahoma&quot;&gt;بله&lt;/font&gt;" style="text;html=1;align=center;verticalAlign=middle;resizable=0;points=[];autosize=1;strokeColor=none;fillColor=none;" parent="icxHUV3VudQYMbT3gARq-10" vertex="1">
          <mxGeometry x="977" y="254" width="40" height="30" as="geometry" />
        </mxCell>
        <mxCell id="mNFOlLU00NmX8I9TdvMS-7" value="&lt;font face=&quot;Tahoma&quot;&gt;خیر&lt;/font&gt;" style="text;html=1;align=center;verticalAlign=middle;resizable=0;points=[];autosize=1;strokeColor=none;fillColor=none;" vertex="1" parent="icxHUV3VudQYMbT3gARq-10">
          <mxGeometry x="966" y="337" width="40" height="30" as="geometry" />
        </mxCell>
        <mxCell id="mNFOlLU00NmX8I9TdvMS-9" style="edgeStyle=orthogonalEdgeStyle;rounded=0;orthogonalLoop=1;jettySize=auto;html=1;entryX=0.5;entryY=1;entryDx=0;entryDy=0;entryPerimeter=0;" edge="1" parent="icxHUV3VudQYMbT3gARq-2" source="mNFOlLU00NmX8I9TdvMS-4" target="mNFOlLU00NmX8I9TdvMS-8">
          <mxGeometry relative="1" as="geometry" />
        </mxCell>
        <mxCell id="mNFOlLU00NmX8I9TdvMS-12" style="edgeStyle=orthogonalEdgeStyle;rounded=0;orthogonalLoop=1;jettySize=auto;html=1;entryX=0;entryY=0.5;entryDx=0;entryDy=0;entryPerimeter=0;" edge="1" parent="icxHUV3VudQYMbT3gARq-2" source="mNFOlLU00NmX8I9TdvMS-10" target="icxHUV3VudQYMbT3gARq-25">
          <mxGeometry relative="1" as="geometry" />
        </mxCell>
        <mxCell id="icxHUV3VudQYMbT3gARq-19" value="" style="points=[[0.145,0.145,0],[0.5,0,0],[0.855,0.145,0],[1,0.5,0],[0.855,0.855,0],[0.5,1,0],[0.145,0.855,0],[0,0.5,0]];shape=mxgraph.bpmn.event;html=1;verticalLabelPosition=bottom;labelBackgroundColor=#ffffff;verticalAlign=top;align=center;perimeter=ellipsePerimeter;outlineConnect=0;aspect=fixed;outline=standard;symbol=general;fillColor=#d5e8d4;strokeColor=#82b366;" parent="icxHUV3VudQYMbT3gARq-1" vertex="1">
          <mxGeometry x="147" y="-286" width="44" height="44" as="geometry" />
        </mxCell>
        <mxCell id="icxHUV3VudQYMbT3gARq-20" value="&lt;font size=&quot;1&quot; style=&quot;&quot; face=&quot;Tahoma&quot;&gt;&lt;b style=&quot;font-size: 16px;&quot;&gt;ارسال درخواست&lt;/b&gt;&lt;/font&gt;" style="points=[[0.25,0,0],[0.5,0,0],[0.75,0,0],[1,0.25,0],[1,0.5,0],[1,0.75,0],[0.75,1,0],[0.5,1,0],[0.25,1,0],[0,0.75,0],[0,0.5,0],[0,0.25,0]];shape=mxgraph.bpmn.task;whiteSpace=wrap;rectStyle=rounded;size=10;html=1;container=1;expand=0;collapsible=0;taskMarker=abstract;" parent="icxHUV3VudQYMbT3gARq-1" vertex="1">
          <mxGeometry x="971" y="-304" width="140" height="80" as="geometry" />
        </mxCell>
        <mxCell id="icxHUV3VudQYMbT3gARq-21" value="&lt;font style=&quot;font-size: 16px;&quot; face=&quot;Tahoma&quot;&gt;&lt;b&gt;ارزیابی اطلاعات و انتخاب فروشنده&lt;/b&gt;&lt;/font&gt;" style="points=[[0.25,0,0],[0.5,0,0],[0.75,0,0],[1,0.25,0],[1,0.5,0],[1,0.75,0],[0.75,1,0],[0.5,1,0],[0.25,1,0],[0,0.75,0],[0,0.5,0],[0,0.25,0]];shape=mxgraph.bpmn.task;whiteSpace=wrap;rectStyle=rounded;size=10;html=1;container=1;expand=0;collapsible=0;taskMarker=abstract;" parent="icxHUV3VudQYMbT3gARq-1" vertex="1">
          <mxGeometry x="972" y="38" width="139" height="80" as="geometry" />
        </mxCell>
        <mxCell id="icxHUV3VudQYMbT3gARq-22" style="edgeStyle=orthogonalEdgeStyle;rounded=0;orthogonalLoop=1;jettySize=auto;html=1;exitX=0.5;exitY=1;exitDx=0;exitDy=0;exitPerimeter=0;entryX=0.5;entryY=0;entryDx=0;entryDy=0;entryPerimeter=0;" parent="icxHUV3VudQYMbT3gARq-1" source="icxHUV3VudQYMbT3gARq-20" target="icxHUV3VudQYMbT3gARq-21" edge="1">
          <mxGeometry relative="1" as="geometry" />
        </mxCell>
        <mxCell id="icxHUV3VudQYMbT3gARq-31" value="&lt;font style=&quot;font-size: 16px;&quot; face=&quot;Tahoma&quot;&gt;&lt;b&gt;تصمیم به همکاری&lt;/b&gt;&lt;/font&gt;" style="points=[[0.25,0,0],[0.5,0,0],[0.75,0,0],[1,0.25,0],[1,0.5,0],[1,0.75,0],[0.75,1,0],[0.5,1,0],[0.25,1,0],[0,0.75,0],[0,0.5,0],[0,0.25,0]];shape=mxgraph.bpmn.task;whiteSpace=wrap;rectStyle=rounded;size=10;html=1;container=1;expand=0;collapsible=0;taskMarker=abstract;" parent="icxHUV3VudQYMbT3gARq-1" vertex="1">
          <mxGeometry x="249" y="-304" width="120" height="80" as="geometry" />
        </mxCell>
        <mxCell id="icxHUV3VudQYMbT3gARq-32" value="&lt;b&gt;&lt;font style=&quot;font-size: 16px;&quot; face=&quot;Tahoma&quot;&gt;مطالعه نحوه&amp;nbsp; شروع همکاری و بررسی فراهم بودن شرایط&lt;br&gt;&lt;/font&gt;&lt;/b&gt;" style="points=[[0.25,0,0],[0.5,0,0],[0.75,0,0],[1,0.25,0],[1,0.5,0],[1,0.75,0],[0.75,1,0],[0.5,1,0],[0.25,1,0],[0,0.75,0],[0,0.5,0],[0,0.25,0]];shape=mxgraph.bpmn.task;whiteSpace=wrap;rectStyle=rounded;size=10;html=1;container=1;expand=0;collapsible=0;taskMarker=abstract;" parent="icxHUV3VudQYMbT3gARq-1" vertex="1">
          <mxGeometry x="449" y="-310" width="180" height="91" as="geometry" />
        </mxCell>
        <mxCell id="icxHUV3VudQYMbT3gARq-33" style="edgeStyle=orthogonalEdgeStyle;rounded=0;orthogonalLoop=1;jettySize=auto;html=1;exitX=1;exitY=0.5;exitDx=0;exitDy=0;exitPerimeter=0;entryX=0;entryY=0.5;entryDx=0;entryDy=0;entryPerimeter=0;" parent="icxHUV3VudQYMbT3gARq-1" source="icxHUV3VudQYMbT3gARq-19" target="icxHUV3VudQYMbT3gARq-31" edge="1">
          <mxGeometry relative="1" as="geometry" />
        </mxCell>
        <mxCell id="icxHUV3VudQYMbT3gARq-34" style="edgeStyle=orthogonalEdgeStyle;rounded=0;orthogonalLoop=1;jettySize=auto;html=1;exitX=1;exitY=0.5;exitDx=0;exitDy=0;exitPerimeter=0;entryX=0;entryY=0.5;entryDx=0;entryDy=0;entryPerimeter=0;" parent="icxHUV3VudQYMbT3gARq-1" source="icxHUV3VudQYMbT3gARq-31" target="icxHUV3VudQYMbT3gARq-32" edge="1">
          <mxGeometry relative="1" as="geometry" />
        </mxCell>
        <mxCell id="icxHUV3VudQYMbT3gARq-35" style="edgeStyle=orthogonalEdgeStyle;rounded=0;orthogonalLoop=1;jettySize=auto;html=1;exitX=1;exitY=0.5;exitDx=0;exitDy=0;exitPerimeter=0;entryX=0;entryY=0.5;entryDx=0;entryDy=0;entryPerimeter=0;" parent="icxHUV3VudQYMbT3gARq-1" source="icxHUV3VudQYMbT3gARq-4" target="icxHUV3VudQYMbT3gARq-20" edge="1">
          <mxGeometry relative="1" as="geometry" />
        </mxCell>
        <mxCell id="icxHUV3VudQYMbT3gARq-36" value="&lt;font face=&quot;Tahoma&quot; style=&quot;font-size: 14px;&quot;&gt;بله&lt;/font&gt;" style="text;html=1;align=center;verticalAlign=middle;resizable=0;points=[];autosize=1;strokeColor=none;fillColor=none;" parent="icxHUV3VudQYMbT3gARq-1" vertex="1">
          <mxGeometry x="908" y="-295" width="40" height="30" as="geometry" />
        </mxCell>
        <mxCell id="icxHUV3VudQYMbT3gARq-37" style="edgeStyle=orthogonalEdgeStyle;rounded=0;orthogonalLoop=1;jettySize=auto;html=1;exitX=1;exitY=0.5;exitDx=0;exitDy=0;exitPerimeter=0;entryX=0;entryY=0.5;entryDx=0;entryDy=0;entryPerimeter=0;" parent="icxHUV3VudQYMbT3gARq-1" source="icxHUV3VudQYMbT3gARq-32" target="icxHUV3VudQYMbT3gARq-4" edge="1">
          <mxGeometry relative="1" as="geometry" />
        </mxCell>
        <mxCell id="icxHUV3VudQYMbT3gARq-38" value="&lt;b&gt;&lt;font face=&quot;Tahoma&quot; style=&quot;font-size: 16px;&quot;&gt;فراهم کردن شرایط&lt;/font&gt;&lt;/b&gt;" style="points=[[0.25,0,0],[0.5,0,0],[0.75,0,0],[1,0.25,0],[1,0.5,0],[1,0.75,0],[0.75,1,0],[0.5,1,0],[0.25,1,0],[0,0.75,0],[0,0.5,0],[0,0.25,0]];shape=mxgraph.bpmn.task;whiteSpace=wrap;rectStyle=rounded;size=10;html=1;container=1;expand=0;collapsible=0;taskMarker=abstract;" parent="icxHUV3VudQYMbT3gARq-1" vertex="1">
          <mxGeometry x="450" y="-125" width="180" height="80" as="geometry" />
        </mxCell>
        <mxCell id="icxHUV3VudQYMbT3gARq-40" style="edgeStyle=orthogonalEdgeStyle;rounded=0;orthogonalLoop=1;jettySize=auto;html=1;exitX=0;exitY=0.5;exitDx=0;exitDy=0;exitPerimeter=0;entryX=1.006;entryY=0.425;entryDx=0;entryDy=0;entryPerimeter=0;" parent="icxHUV3VudQYMbT3gARq-1" source="icxHUV3VudQYMbT3gARq-8" target="icxHUV3VudQYMbT3gARq-38" edge="1">
          <mxGeometry relative="1" as="geometry" />
        </mxCell>
        <mxCell id="icxHUV3VudQYMbT3gARq-41" value="&lt;font face=&quot;Tahoma&quot;&gt;بله&lt;/font&gt;" style="text;html=1;align=center;verticalAlign=middle;resizable=0;points=[];autosize=1;strokeColor=none;fillColor=none;" parent="icxHUV3VudQYMbT3gARq-1" vertex="1">
          <mxGeometry x="638" y="-116" width="40" height="30" as="geometry" />
        </mxCell>
        <mxCell id="icxHUV3VudQYMbT3gARq-42" value="&lt;font face=&quot;Tahoma&quot;&gt;انتخاب؟&lt;/font&gt;" style="points=[[0.25,0.25,0],[0.5,0,0],[0.75,0.25,0],[1,0.5,0],[0.75,0.75,0],[0.5,1,0],[0.25,0.75,0],[0,0.5,0]];shape=mxgraph.bpmn.gateway2;html=1;verticalLabelPosition=bottom;labelBackgroundColor=#ffffff;verticalAlign=top;align=center;perimeter=rhombusPerimeter;outlineConnect=0;outline=none;symbol=none;" parent="icxHUV3VudQYMbT3gARq-1" vertex="1">
          <mxGeometry x="1016" y="231" width="50" height="50" as="geometry" />
        </mxCell>
        <mxCell id="icxHUV3VudQYMbT3gARq-46" style="edgeStyle=orthogonalEdgeStyle;rounded=0;orthogonalLoop=1;jettySize=auto;html=1;exitX=1;exitY=0.5;exitDx=0;exitDy=0;exitPerimeter=0;entryX=0;entryY=0.5;entryDx=0;entryDy=0;entryPerimeter=0;" parent="icxHUV3VudQYMbT3gARq-1" source="icxHUV3VudQYMbT3gARq-42" target="icxHUV3VudQYMbT3gARq-11" edge="1">
          <mxGeometry relative="1" as="geometry" />
        </mxCell>
        <mxCell id="icxHUV3VudQYMbT3gARq-51" style="edgeStyle=orthogonalEdgeStyle;rounded=0;orthogonalLoop=1;jettySize=auto;html=1;exitX=0.5;exitY=1;exitDx=0;exitDy=0;exitPerimeter=0;" parent="icxHUV3VudQYMbT3gARq-1" edge="1">
          <mxGeometry relative="1" as="geometry">
            <Array as="points">
              <mxPoint x="703" y="160" />
              <mxPoint x="1681" y="160" />
            </Array>
            <mxPoint x="702.5" y="-69" as="sourcePoint" />
            <mxPoint x="1681" y="160" as="targetPoint" />
          </mxGeometry>
        </mxCell>
        <mxCell id="icxHUV3VudQYMbT3gARq-52" value="&lt;font face=&quot;Tahoma&quot;&gt;خیر&lt;/font&gt;" style="text;html=1;align=center;verticalAlign=middle;resizable=0;points=[];autosize=1;strokeColor=none;fillColor=none;" parent="icxHUV3VudQYMbT3gARq-1" vertex="1">
          <mxGeometry x="676" y="7" width="40" height="30" as="geometry" />
        </mxCell>
        <mxCell id="mNFOlLU00NmX8I9TdvMS-2" style="edgeStyle=orthogonalEdgeStyle;rounded=0;orthogonalLoop=1;jettySize=auto;html=1;exitX=0.5;exitY=1;exitDx=0;exitDy=0;exitPerimeter=0;entryX=0.5;entryY=0;entryDx=0;entryDy=0;entryPerimeter=0;" edge="1" parent="icxHUV3VudQYMbT3gARq-1" source="icxHUV3VudQYMbT3gARq-21" target="icxHUV3VudQYMbT3gARq-42">
          <mxGeometry relative="1" as="geometry" />
        </mxCell>
        <mxCell id="mNFOlLU00NmX8I9TdvMS-5" style="edgeStyle=orthogonalEdgeStyle;rounded=0;orthogonalLoop=1;jettySize=auto;html=1;exitX=0.5;exitY=1;exitDx=0;exitDy=0;exitPerimeter=0;entryX=0;entryY=0.5;entryDx=0;entryDy=0;entryPerimeter=0;" edge="1" parent="icxHUV3VudQYMbT3gARq-1" source="icxHUV3VudQYMbT3gARq-42" target="mNFOlLU00NmX8I9TdvMS-4">
          <mxGeometry relative="1" as="geometry">
            <Array as="points">
              <mxPoint x="1041" y="340" />
              <mxPoint x="1160" y="340" />
              <mxPoint x="1160" y="80" />
            </Array>
          </mxGeometry>
        </mxCell>
        <mxCell id="mNFOlLU00NmX8I9TdvMS-13" value="&lt;font face=&quot;Tahoma&quot;&gt;خیر&lt;/font&gt;" style="text;html=1;align=center;verticalAlign=middle;resizable=0;points=[];autosize=1;strokeColor=none;fillColor=none;" vertex="1" parent="icxHUV3VudQYMbT3gARq-1">
          <mxGeometry x="1608" y="-126" width="40" height="30" as="geometry" />
        </mxCell>
        <mxCell id="mNFOlLU00NmX8I9TdvMS-17" style="edgeStyle=orthogonalEdgeStyle;rounded=0;orthogonalLoop=1;jettySize=auto;html=1;exitX=0;exitY=0.5;exitDx=0;exitDy=0;exitPerimeter=0;entryX=1;entryY=0.5;entryDx=0;entryDy=0;entryPerimeter=0;" edge="1" parent="icxHUV3VudQYMbT3gARq-1" source="mNFOlLU00NmX8I9TdvMS-14" target="icxHUV3VudQYMbT3gARq-20">
          <mxGeometry relative="1" as="geometry" />
        </mxCell>
        <mxCell id="mNFOlLU00NmX8I9TdvMS-18" value="&lt;font face=&quot;Tahoma&quot;&gt;بله&lt;/font&gt;" style="text;html=1;align=center;verticalAlign=middle;resizable=0;points=[];autosize=1;strokeColor=none;fillColor=none;" vertex="1" parent="icxHUV3VudQYMbT3gARq-1">
          <mxGeometry x="1499" y="-182" width="40" height="30" as="geometry" />
        </mxCell>
        <mxCell id="mNFOlLU00NmX8I9TdvMS-19" style="edgeStyle=orthogonalEdgeStyle;rounded=0;orthogonalLoop=1;jettySize=auto;html=1;entryX=0.5;entryY=1;entryDx=0;entryDy=0;entryPerimeter=0;" edge="1" parent="icxHUV3VudQYMbT3gARq-1" source="icxHUV3VudQYMbT3gARq-38" target="icxHUV3VudQYMbT3gARq-32">
          <mxGeometry relative="1" as="geometry" />
        </mxCell>
      </root>
    </mxGraphModel>
  </diagram>
</mxfile>
